Coordinates
version=1
nRows=6
nColumns=63
inDegrees=yes

Units are S.I. units (second, meters, Newtons, ...)
If the header above contains a line with 'inDegrees', this indicates whether rotational values are in degrees (yes) or radians (no).

endheader
time	pelvis_tilt	pelvis_list	pelvis_rotation	pelvis_tx	pelvis_ty	pelvis_tz	hip_flexion_r	hip_adduction_r	hip_rotation_r	knee_angle_r	knee_angle_r_beta	ankle_angle_r	subtalar_angle_r	mtp_angle_r	hip_flexion_l	hip_adduction_l	hip_rotation_l	knee_angle_l	knee_angle_l_beta	ankle_angle_l	subtalar_angle_l	mtp_angle_l	L5_S1_Flex_Ext	L5_S1_Lat_Bending	L5_S1_axial_rotation	L4_L5_Flex_Ext	L4_L5_Lat_Bending	L4_L5_axial_rotation	L3_L4_Flex_Ext	L3_L4_Lat_Bending	L3_L4_axial_rotation	L2_L3_Flex_Ext	L2_L3_Lat_Bending	L2_L3_axial_rotation	L1_L2_Flex_Ext	L1_L2_Lat_Bending	L1_L2_axial_rotation	L1_T12_Flex_Ext	L1_T12_Lat_Bending	L1_T12_axial_rotation	Abs_r3	Abs_r2	Abs_r1	Abs_t1	Abs_t2	neck_flexion	neck_bending	neck_rotation	arm_flex_r	arm_add_r	arm_rot_r	elbow_flex_r	pro_sup_r	wrist_flex_r	wrist_dev_r	arm_flex_l	arm_add_l	arm_rot_l	elbow_flex_l	pro_sup_l	wrist_flex_l	wrist_dev_l
2.533333	0.782632	-4.003211	83.978779	0.104477	0.991077	0.273327	-2.759616	1.615075	-17.224806	5.742651	0.100228	17.588162	17.269993	0.000000	-0.641506	0.288186	-3.065355	7.873833	0.137424	9.877184	-15.589863	0.000000	-0.093109	0.206503	1.139409	-0.172912	0.274649	1.210623	-0.152968	0.502091	1.210623	-0.106414	0.502091	0.996983	-0.086461	0.421101	0.925770	-0.053202	0.319873	0.854557	-0.665065	2.336003	6.337054	0.000000	0.000000	16.251022	0.089968	-12.848048	8.891726	-19.263327	32.678625	30.625216	86.468435	-10.078006	-0.007871	19.370408	-18.508756	87.463256	16.469200	70.878160	-10.993971	-9.238884
2.550000	0.713659	-4.002182	84.191296	0.104473	0.990953	0.273746	-2.696894	1.556206	-17.577768	5.844243	0.102001	17.558848	17.324208	0.000000	-0.499396	0.327764	-2.887550	8.044482	0.140403	9.779948	-15.708104	0.000000	-0.100662	0.189257	1.119671	-0.186940	0.251712	1.189651	-0.165378	0.460159	1.189651	-0.115047	0.460159	0.979712	-0.093475	0.385933	0.909733	-0.057518	0.293159	0.839754	-0.719020	2.140912	6.227276	0.000000	0.000000	16.159911	0.392549	-12.955528	8.995917	-19.327636	35.044261	29.601347	86.485750	-10.976740	-0.792834	19.414781	-18.355742	90.422384	15.880595	67.308585	-9.470148	-9.165245
2.566667	0.626807	-3.981978	84.366936	0.104488	0.990848	0.274111	-2.651303	1.471069	-17.946571	5.953820	0.103914	17.523575	17.413687	0.000000	-0.377830	0.393384	-2.697539	8.200603	0.143128	9.718212	-15.896028	0.000000	-0.111414	0.169498	1.106898	-0.206907	0.225433	1.176079	-0.183042	0.412118	1.176079	-0.127335	0.412118	0.968536	-0.103459	0.345641	0.899354	-0.063662	0.262553	0.830173	-0.795820	1.917397	6.156233	0.000000	0.000000	16.002255	0.684789	-13.151606	9.136815	-19.354853	37.460726	28.587095	86.513850	-11.816473	-1.512544	19.441718	-18.095854	94.402057	15.056451	62.806203	-7.594902	-8.943928
2.583333	0.535863	-3.948358	84.468797	0.104535	0.990777	0.274350	-2.640636	1.377464	-18.193618	6.023704	0.105133	17.478529	17.487220	0.000000	-0.301518	0.474659	-2.531935	8.301192	0.144883	9.705047	-16.109989	0.000000	-0.123516	0.151035	1.098962	-0.229381	0.200876	1.167647	-0.202924	0.367226	1.167647	-0.141166	0.367226	0.961592	-0.114697	0.307990	0.892907	-0.070577	0.233953	0.824221	-0.882260	1.708536	6.112096	0.000000	0.000000	15.798861	0.910926	-13.321715	9.381642	-19.372392	40.141857	27.611207	86.552940	-12.727371	-2.190803	19.426337	-17.769451	98.894700	14.142280	57.503326	-5.571029	-8.709920
2.600000	0.440356	-3.902439	84.511121	0.104609	0.990761	0.274486	-2.657841	1.277980	-18.341736	6.059012	0.105750	17.444678	17.536890	0.000000	-0.270418	0.569986	-2.380223	8.343902	0.145629	9.775949	-16.315590	0.000000	-0.137663	0.133377	1.093317	-0.255654	0.177392	1.161649	-0.226167	0.324293	1.161649	-0.157335	0.324293	0.956652	-0.127834	0.271983	0.888320	-0.078661	0.206601	0.819987	-0.983315	1.508789	6.080699	0.000000	0.000000	15.564497	1.056427	-13.510287	9.739697	-19.348638	42.962373	26.680302	86.595381	-13.582287	-2.772646	19.371929	-17.378655	103.803368	13.112841	51.640011	-3.451438	-8.477605
2.616667	0.352877	-3.863457	84.499911	0.104703	0.990787	0.274511	-2.698614	1.192617	-18.360878	6.028175	0.105211	17.417745	17.566396	0.000000	-0.261341	0.661790	-2.256059	8.342816	0.145610	9.918776	-16.484862	0.000000	-0.150882	0.118789	1.089613	-0.280202	0.157989	1.157714	-0.247883	0.288823	1.157714	-0.172443	0.288823	0.953412	-0.140109	0.242234	0.885311	-0.086214	0.184004	0.817210	-1.077733	1.343762	6.060102	0.000000	0.000000	15.325093	1.096123	-13.691762	10.194023	-19.305331	45.866193	25.849759	86.666772	-14.473344	-3.307431	19.308609	-16.948795	108.933769	12.067832	45.359783	-1.303343	-8.323041
